<?xml version="1.0" standalone="no"?>
<!DOCTYPE svg PUBLIC "-//W3C//DTD SVG 20010904//EN"
 "http://www.w3.org/TR/2001/REC-SVG-20010904/DTD/svg10.dtd">
<svg version="1.0" xmlns="http://www.w3.org/2000/svg"
 width="225.000000pt" height="225.000000pt" viewBox="0 0 225.000000 225.000000"
 preserveAspectRatio="xMidYMid meet">

<g transform="translate(0.000000,225.000000) scale(0.100000,-0.100000)"
fill="#000000" stroke="none">
<path d="M883 2225 c-143 -44 -232 -153 -233 -283 0 -103 42 -176 136 -239 31
-21 54 -43 54 -53 0 -25 -86 -100 -159 -139 -33 -18 -61 -34 -61 -37 0 -7 78
6 140 23 65 17 118 47 184 101 43 36 54 40 117 44 83 6 176 48 236 106 121
118 111 299 -24 408 -76 62 -144 84 -256 83 -51 0 -111 -6 -134 -14z"/>
<path d="M1467 2038 c4 -18 8 -67 8 -108 -1 -92 -31 -165 -99 -238 l-46 -49
50 -22 c27 -12 81 -25 120 -30 55 -7 80 -16 117 -43 56 -40 110 -63 173 -73
l45 -6 -35 21 c-52 33 -100 81 -100 102 0 11 14 26 32 36 160 86 191 234 74
348 -72 70 -138 94 -257 94 l-91 0 9 -32z"/>
<path d="M402 1260 c-107 -54 -172 -147 -180 -261 -6 -91 17 -156 80 -226 l50
-55 -69 -63 c-122 -112 -181 -244 -190 -426 -3 -59 -3 -122 1 -141 l6 -35 103
-19 c147 -27 547 -27 692 0 55 10 103 24 107 30 4 6 8 59 8 117 0 198 -52 332
-180 460 l-76 76 39 44 c94 106 114 231 57 347 -36 70 -91 124 -164 158 -41
19 -67 24 -137 24 -76 0 -93 -4 -147 -30z"/>
<path d="M1684 1276 c-46 -20 -112 -83 -136 -130 -15 -29 -22 -60 -22 -106 0
-74 16 -114 71 -171 l34 -36 -60 -58 c-68 -65 -122 -161 -141 -248 -6 -30 -10
-94 -8 -143 l3 -89 100 -17 c170 -30 457 -23 598 13 l37 10 0 92 c0 163 -50
288 -152 382 l-61 56 36 37 c54 57 71 98 70 172 0 102 -51 179 -150 229 -50
25 -169 28 -219 7z"/>
</g>
</svg>
