<?xml version="1.0" standalone="no"?>
<!DOCTYPE svg PUBLIC "-//W3C//DTD SVG 20010904//EN"
 "http://www.w3.org/TR/2001/REC-SVG-20010904/DTD/svg10.dtd">
<svg version="1.0" xmlns="http://www.w3.org/2000/svg"
 width="1300.000000pt" height="1300.000000pt" viewBox="0 0 1300.000000 1300.000000"
 preserveAspectRatio="xMidYMid meet">

<g transform="translate(0.000000,1300.000000) scale(0.100000,-0.100000)"
fill="#000000" stroke="none">
<path d="M2068 12850 c-219 -35 -351 -142 -443 -361 -21 -48 -29 -87 -33 -154
-5 -101 -19 -135 -85 -217 -111 -138 -147 -209 -173 -331 -18 -89 -15 -280 6
-387 20 -100 9 -142 -72 -277 -39 -65 -86 -147 -104 -183 -85 -170 -85 -332 0
-567 45 -126 37 -197 -54 -428 -74 -192 -84 -235 -85 -365 0 -87 6 -138 24
-210 28 -116 25 -140 -33 -296 -24 -65 -51 -157 -59 -204 -9 -47 -26 -114 -40
-150 -13 -36 -32 -118 -41 -183 -12 -80 -31 -158 -61 -243 -42 -118 -93 -310
-129 -489 -9 -44 -34 -171 -56 -283 -46 -230 -117 -551 -153 -692 -14 -52 -28
-122 -32 -154 -6 -56 -38 -146 -123 -341 -65 -151 -81 -260 -43 -306 l18 -23
17 26 c9 13 29 64 45 111 30 87 80 187 94 187 10 0 -9 -125 -53 -332 -21 -101
-22 -109 -6 -133 32 -49 58 -29 86 67 10 35 19 55 19 46 1 -9 -3 -27 -8 -41
-5 -13 -12 -41 -15 -63 -4 -21 -9 -47 -12 -56 -8 -25 4 -56 26 -68 46 -25 80
44 131 265 11 49 28 105 37 125 29 64 25 2 -8 -136 -18 -71 -34 -152 -37 -180
-5 -46 -3 -53 14 -58 46 -15 70 17 108 139 20 66 23 70 50 70 46 0 71 61 85
205 6 63 15 140 20 170 5 30 9 85 9 121 1 36 8 88 16 115 8 27 20 96 26 154 6
58 26 164 44 235 19 72 41 180 50 240 20 135 45 244 124 535 76 281 90 325
158 480 69 155 85 201 128 366 19 71 46 153 61 180 30 54 86 144 90 144 1 0 9
-12 16 -27 8 -16 33 -62 55 -103 52 -97 92 -198 113 -283 14 -60 15 -79 3
-150 -23 -140 -44 -217 -100 -367 -31 -80 -69 -185 -85 -235 -30 -88 -54 -130
-120 -208 -23 -27 -31 -46 -30 -70 7 -105 5 -113 -46 -227 -75 -171 -86 -219
-86 -395 -1 -176 15 -261 76 -404 60 -142 64 -182 44 -454 -9 -127 -21 -320
-26 -427 -34 -674 -58 -817 -204 -1195 -19 -49 -53 -133 -76 -185 -259 -584
-283 -671 -370 -1355 -47 -368 -83 -589 -105 -642 -9 -20 -29 -59 -46 -87 -20
-31 -36 -77 -44 -121 -16 -90 -24 -108 -77 -180 -180 -245 -206 -359 -149
-645 39 -196 51 -303 51 -458 0 -68 5 -132 10 -143 12 -22 52 -25 69 -5 8 9
15 91 21 223 9 233 21 283 71 308 40 21 59 19 110 -14 60 -38 104 -100 181
-256 79 -160 108 -203 153 -234 105 -71 458 0 587 118 l52 48 4 72 4 73 -49
46 c-28 26 -59 67 -70 92 -37 82 -89 106 -196 89 -76 -12 -111 0 -127 44 -6
18 -31 109 -55 203 -24 94 -49 183 -55 198 -15 39 -12 88 6 132 13 31 15 54 9
114 -12 115 -11 125 30 212 34 71 40 95 46 182 16 226 59 389 330 1244 55 172
110 334 123 360 13 26 26 59 30 73 3 16 20 35 40 47 27 16 37 31 46 64 19 77
51 151 130 293 93 171 148 296 191 438 18 59 36 107 40 107 11 0 34 -78 74
-245 20 -82 42 -178 51 -211 8 -34 14 -101 13 -150 -1 -59 4 -104 15 -133 9
-24 16 -76 16 -115 1 -39 7 -89 15 -111 8 -22 15 -66 15 -98 0 -32 4 -100 10
-150 5 -51 14 -207 20 -347 6 -152 18 -306 30 -382 26 -168 100 -465 206 -828
107 -368 134 -478 134 -560 0 -71 -5 -80 -77 -169 -24 -29 -48 -71 -55 -94
-18 -64 -14 -209 12 -347 18 -100 23 -163 24 -316 1 -146 4 -195 15 -207 36
-44 45 -14 65 218 18 209 29 260 62 281 65 43 175 -79 295 -332 114 -238 147
-274 273 -294 131 -21 344 21 438 86 121 84 162 219 101 332 -59 108 -163 189
-273 213 -67 14 -102 46 -139 124 -67 141 -145 420 -166 595 -9 73 -34 166
-57 213 -11 21 -25 71 -33 111 -8 39 -19 84 -25 100 -17 47 -39 192 -50 346
-6 80 -13 151 -16 159 -2 8 -6 53 -8 100 -6 134 -39 411 -48 405 -4 -3 -5 1
-3 8 3 8 -8 101 -26 208 -27 175 -30 208 -24 325 4 72 15 164 26 207 12 49 19
111 19 176 0 55 5 124 11 153 5 30 10 94 10 143 -1 138 -51 738 -81 981 -6 44
-19 157 -30 250 -21 173 -36 287 -91 685 -17 124 -33 237 -35 253 -1 15 -6 32
-9 37 -4 6 -8 39 -10 74 -2 34 -11 100 -19 146 -21 109 -20 175 3 244 40 114
54 126 170 146 73 13 135 41 145 65 10 28 7 72 -14 168 -29 136 -40 252 -40
437 -1 91 -5 199 -10 240 -24 186 -24 182 -5 196 19 14 59 2 163 -51 91 -46
225 -65 455 -65 271 0 848 43 1127 84 182 27 292 59 312 90 4 6 8 37 8 68 0
31 4 60 10 63 5 3 47 -5 92 -19 93 -28 134 -36 368 -72 233 -35 351 -42 372
-20 19 18 15 41 -8 50 -8 3 -79 17 -157 31 -176 31 -239 47 -244 61 -7 22 33
27 277 35 135 4 257 11 272 15 33 8 78 47 78 68 0 31 -39 39 -165 33 -66 -4
-160 -9 -210 -11 l-90 -5 80 9 c44 6 167 16 274 24 107 8 198 19 204 25 16 16
-18 58 -55 69 -18 6 -145 13 -282 15 -160 3 -252 9 -259 16 -13 13 16 14 248
12 153 -2 259 9 278 28 5 5 7 21 3 36 -13 53 -81 65 -464 86 -251 13 -294 23
-300 67 -4 24 25 56 113 127 113 91 145 133 145 192 0 19 -4 24 -16 19 -8 -3
-12 -2 -9 4 8 13 -11 13 -38 -1 -12 -7 -65 -44 -117 -83 -52 -40 -140 -101
-195 -137 -55 -36 -136 -95 -180 -131 -45 -36 -94 -72 -110 -80 -29 -15 -141
-39 -330 -73 -49 -9 -132 -25 -183 -37 -81 -18 -100 -19 -153 -9 -51 10 -68
10 -117 -5 -31 -9 -82 -16 -113 -15 -31 1 -68 -3 -83 -8 -17 -7 -43 -7 -78 0
-29 5 -136 12 -238 15 -208 6 -237 14 -275 73 -13 20 -31 65 -40 101 -9 36
-30 88 -46 116 -23 41 -33 78 -49 192 -25 170 -44 235 -122 411 -65 148 -124
289 -198 476 -81 205 -78 199 -98 184 -14 -11 -15 -11 -4 1 18 21 16 32 -32
132 -24 51 -56 122 -71 158 -70 174 -93 196 -297 284 -42 18 -59 31 -63 49 -9
32 15 69 60 93 34 18 35 18 87 -5 164 -71 222 -78 269 -32 24 25 29 38 29 78
0 51 21 93 45 93 20 0 38 38 31 65 -5 18 -1 25 14 30 28 9 34 43 15 87 -20 49
-20 48 19 48 41 0 86 33 86 63 0 12 -12 42 -26 67 -32 56 -64 150 -64 189 0
17 16 73 35 124 61 164 63 307 6 436 -21 46 -32 90 -36 146 -8 85 -19 117 -57
152 -34 32 -108 62 -138 57 -30 -6 -61 14 -133 83 -111 106 -213 169 -323 197
-77 20 -213 27 -286 16z m9 -1725 c87 -20 166 -61 228 -120 60 -56 149 -181
140 -196 -7 -11 -137 -11 -215 1 -30 4 -92 17 -138 29 -98 25 -209 27 -278 6
-96 -29 -102 -20 -50 83 18 37 43 100 55 139 13 40 29 76 37 81 16 9 130 -3
221 -23z m763 -949 c0 -2 -8 -10 -17 -17 -16 -13 -17 -12 -4 4 13 16 21 21 21
13z m-1080 -1079 c0 -2 -12 -14 -27 -28 l-28 -24 24 28 c23 25 31 32 31 24z
m-35 -1537 c10 -11 16 -20 13 -20 -3 0 -13 9 -23 20 -10 11 -16 20 -13 20 3 0
13 -9 23 -20z m80 -80 c10 -11 16 -20 13 -20 -3 0 -13 9 -23 20 -10 11 -16 20
-13 20 3 0 13 -9 23 -20z m80 -80 c10 -11 16 -20 13 -20 -3 0 -13 9 -23 20
-10 11 -16 20 -13 20 3 0 13 -9 23 -20z m80 -80 c10 -11 16 -20 13 -20 -3 0
-13 9 -23 20 -10 11 -16 20 -13 20 3 0 13 -9 23 -20z m80 -80 c10 -11 16 -20
13 -20 -3 0 -13 9 -23 20 -10 11 -16 20 -13 20 3 0 13 -9 23 -20z m80 -80 c10
-11 16 -20 13 -20 -3 0 -13 9 -23 20 -10 11 -16 20 -13 20 3 0 13 -9 23 -20z
m80 -80 c10 -11 16 -20 13 -20 -3 0 -13 9 -23 20 -10 11 -16 20 -13 20 3 0 13
-9 23 -20z m80 -80 c10 -11 16 -20 13 -20 -3 0 -13 9 -23 20 -10 11 -16 20
-13 20 3 0 13 -9 23 -20z m80 -80 c10 -11 16 -20 13 -20 -3 0 -13 9 -23 20
-10 11 -16 20 -13 20 3 0 13 -9 23 -20z m80 -80 c10 -11 16 -20 13 -20 -3 0
-13 9 -23 20 -10 11 -16 20 -13 20 3 0 13 -9 23 -20z m80 -80 c10 -11 16 -20
13 -20 -3 0 -13 9 -23 20 -10 11 -16 20 -13 20 3 0 13 -9 23 -20z m80 -80 c10
-11 16 -20 13 -20 -3 0 -13 9 -23 20 -10 11 -16 20 -13 20 3 0 13 -9 23 -20z
m80 -80 c10 -11 16 -20 13 -20 -3 0 -13 9 -23 20 -10 11 -16 20 -13 20 3 0 13
-9 23 -20z m80 -80 c10 -11 16 -20 13 -20 -3 0 -13 9 -23 20 -10 11 -16 20
-13 20 3 0 13 -9 23 -20z m-1025 -1224 c0 -2 -8 -10 -17 -17 -16 -13 -17 -12
-4 4 13 16 21 21 21 13z"/>
<path d="M10249 12791 c-134 -37 -269 -132 -364 -256 -39 -51 -64 -72 -115
-97 -123 -63 -244 -199 -282 -322 -18 -54 -18 -68 -7 -127 6 -37 9 -78 5 -93
-9 -38 17 -150 59 -252 42 -101 55 -189 35 -250 -7 -21 -28 -70 -46 -108 -19
-37 -34 -81 -34 -97 0 -33 31 -59 71 -59 39 0 52 -21 40 -65 -9 -33 -7 -38 19
-62 22 -19 28 -32 24 -52 -5 -29 7 -47 54 -80 24 -16 32 -30 32 -51 0 -59 29
-108 77 -131 65 -31 124 -22 221 36 42 25 88 45 102 45 30 0 73 -41 90 -85 11
-28 9 -32 -29 -65 -23 -19 -41 -39 -41 -44 0 -5 9 -1 21 10 15 14 24 16 37 8
25 -16 43 -73 37 -117 l-5 -38 67 37 c223 123 289 173 417 322 89 102 111 117
158 108 63 -12 148 -170 148 -275 0 -77 -64 -160 -352 -456 -401 -413 -552
-588 -702 -813 -26 -40 -50 -71 -52 -69 -3 2 8 33 24 68 24 53 90 249 179 534
26 82 58 148 89 180 16 17 27 34 26 38 -1 5 1 6 6 3 11 -7 144 92 172 127 11
14 23 38 25 54 7 34 -15 78 -38 77 -9 -1 -14 2 -11 7 10 17 -64 9 -107 -11
-62 -28 -69 -26 -69 19 0 50 -16 56 -71 28 -56 -29 -78 -60 -83 -122 -3 -27
-8 -78 -11 -113 -7 -72 -27 -128 -95 -262 -72 -142 -135 -249 -244 -410 -190
-282 -244 -441 -234 -690 5 -123 -1 -109 -26 61 -40 270 -3 414 176 685 40 61
78 117 83 126 6 8 41 62 79 119 79 118 124 196 166 286 43 92 82 205 76 220
-3 7 -2 13 2 13 4 0 14 21 21 48 7 26 15 54 18 62 3 12 -9 15 -64 18 -91 3
-165 -12 -240 -48 -104 -51 -120 -88 -193 -440 -16 -79 -33 -126 -67 -188 -35
-65 -47 -100 -54 -155 -8 -64 -13 -76 -45 -106 -19 -18 -47 -58 -61 -88 -14
-30 -42 -71 -62 -91 -106 -108 -222 -263 -326 -437 -56 -94 -64 -102 -120
-130 -55 -27 -68 -30 -160 -30 -83 1 -118 6 -210 34 -201 60 -436 142 -821
289 -72 27 -81 28 -77 13 4 -17 -28 -129 -110 -386 l-32 -100 -37 2 c-72 4
-130 49 -168 128 l-19 40 0 -33 c-2 -76 60 -136 223 -216 229 -112 557 -215
1128 -355 269 -66 328 -68 431 -14 39 21 119 71 177 112 174 122 235 145 273
103 57 -63 42 -277 -44 -622 -52 -213 -85 -303 -169 -473 -79 -159 -82 -180
-33 -213 23 -15 45 -19 122 -18 l94 2 -6 -67 c-4 -36 -11 -113 -16 -171 -13
-142 -35 -887 -35 -1190 0 -261 21 -526 70 -890 41 -300 66 -427 152 -760 50
-193 48 -180 72 -450 11 -124 36 -373 55 -555 19 -181 40 -383 47 -448 11
-117 11 -117 32 -100 21 17 21 17 0 -7 -12 -14 -20 -29 -18 -35 10 -30 47
-433 51 -567 4 -123 2 -179 -12 -255 -38 -214 -180 -568 -244 -606 -16 -9 -43
-17 -59 -17 -16 0 -60 -9 -97 -21 -82 -25 -146 -84 -189 -172 -110 -223 50
-362 396 -344 195 10 233 35 365 242 169 264 249 348 316 331 46 -11 60 -62
67 -251 6 -177 15 -215 50 -215 22 0 26 19 34 160 6 104 24 216 61 386 51 230
29 318 -120 479 -84 92 -100 131 -99 245 1 52 13 237 27 410 35 414 38 475 38
735 0 292 -17 475 -96 1030 -28 194 -54 409 -50 413 4 4 4 4 55 -183 87 -316
156 -527 212 -645 54 -112 102 -182 203 -293 175 -193 309 -401 935 -1449 72
-119 118 -243 169 -449 101 -411 124 -524 118 -564 -3 -18 -30 -72 -61 -120
-65 -102 -71 -130 -64 -294 6 -136 20 -175 75 -198 45 -18 112 -10 203 24 180
67 443 274 469 369 8 28 4 70 -15 183 -40 235 -45 521 -9 521 13 0 55 -60 110
-155 36 -63 78 -105 104 -105 30 0 26 21 -17 98 -79 140 -116 229 -166 404
-60 210 -114 268 -264 287 -85 11 -118 23 -140 50 -38 48 -76 149 -187 496
-158 492 -245 662 -538 1047 -120 158 -165 226 -217 326 -32 62 -33 63 -54 45
l-21 -18 19 23 c19 22 19 23 -6 85 -68 166 -84 278 -102 715 -9 196 -21 472
-27 612 -7 140 -14 300 -16 355 -6 125 8 214 59 380 86 283 108 398 108 575 0
254 -60 501 -200 830 -65 153 -109 319 -117 442 -5 81 -2 112 15 180 12 46 33
132 47 191 34 147 62 213 207 487 167 318 198 360 260 360 48 0 79 -69 178
-395 28 -93 68 -217 90 -275 36 -100 57 -151 162 -385 l45 -100 7 -430 c3
-236 10 -473 16 -525 5 -52 12 -188 16 -302 l7 -207 46 -10 c26 -5 116 -15
201 -20 249 -18 263 -19 271 -33 5 -7 9 -46 9 -87 0 -41 2 -72 5 -69 9 9 -24
1207 -40 1436 -26 374 -63 628 -140 957 -38 166 -108 384 -214 670 -22 61 -49
147 -60 192 -11 49 -30 96 -45 116 -14 19 -26 37 -26 41 0 4 -16 44 -35 88
-29 65 -39 105 -50 199 -11 94 -21 133 -50 201 -36 80 -37 85 -29 158 13 129
10 192 -10 233 -10 21 -59 82 -108 135 -50 53 -99 116 -111 140 -23 47 -23 49
29 192 24 65 28 90 28 190 1 190 -44 323 -143 432 -76 84 -82 102 -60 206 33
156 22 285 -32 394 -65 132 -116 186 -244 253 -116 61 -139 83 -171 167 -30
79 -112 176 -175 208 -131 68 -355 96 -480 61z m-661 -4349 c16 16 15 -1 -2
-30 l-13 -24 -11 29 c-6 15 -13 39 -17 53 -5 21 -2 19 12 -8 15 -25 21 -30 31
-20z"/>
<path d="M6645 9710 c-12 -38 32 -106 145 -227 32 -34 66 -73 75 -87 20 -31
12 -64 -18 -71 -12 -2 -161 -6 -332 -8 -271 -3 -315 -6 -353 -21 -40 -17 -62
-40 -62 -66 0 -26 72 -39 263 -49 112 -5 205 -15 218 -21 35 -20 5 -28 -64
-17 -34 5 -147 10 -250 11 -187 1 -189 1 -208 -23 -24 -29 -24 -36 0 -60 15
-15 41 -20 147 -25 172 -10 339 -25 361 -33 37 -14 -45 -20 -154 -11 -126 11
-248 7 -263 -8 -6 -6 -8 -18 -5 -26 13 -33 91 -51 326 -78 147 -16 209 -30
209 -45 0 -15 -57 -27 -175 -36 -75 -5 -148 -14 -161 -20 -36 -13 -27 -40 21
-64 74 -37 363 -23 688 32 82 13 154 22 162 19 7 -2 16 2 19 10 3 8 18 14 34
14 16 0 34 6 40 13 5 6 22 55 38 107 22 71 29 116 29 178 0 48 4 82 10 82 5 1
-7 10 -27 20 -20 11 -63 50 -95 87 -120 141 -163 177 -273 231 -77 38 -126 70
-184 122 -100 91 -148 112 -161 70z"/>
<path d="M7497 9129 c7 -7 15 -10 18 -7 3 3 -2 9 -12 12 -14 6 -15 5 -6 -5z"/>
<path d="M11873 6265 c0 -22 2 -30 4 -17 2 12 2 30 0 40 -3 9 -5 -1 -4 -23z"/>
<path d="M11822 6054 c-27 -89 -34 -123 -67 -369 -25 -187 -23 -240 8 -259 37
-24 77 30 105 143 l19 71 12 -197 c18 -295 35 -381 76 -397 16 -6 35 27 35 60
0 38 30 82 72 107 76 44 102 96 152 300 36 144 43 164 59 148 8 -9 11 -50 9
-142 -3 -130 5 -169 32 -169 8 0 21 18 29 39 37 92 32 189 -24 468 -17 84 -29
160 -25 168 3 9 16 20 28 25 16 6 -15 9 -100 9 -107 1 -240 11 -348 27 -19 3
-35 13 -40 24 -7 17 -13 7 -32 -56z"/>
</g>
</svg>
