<?xml version="1.0" standalone="no"?>
<!DOCTYPE svg PUBLIC "-//W3C//DTD SVG 20010904//EN"
 "http://www.w3.org/TR/2001/REC-SVG-20010904/DTD/svg10.dtd">
<svg version="1.0" xmlns="http://www.w3.org/2000/svg"
 width="225.000000pt" height="225.000000pt" viewBox="0 0 225.000000 225.000000"
 preserveAspectRatio="xMidYMid meet">

<g transform="translate(0.000000,225.000000) scale(0.100000,-0.100000)"
fill="#000000" stroke="none">
<path d="M611 1248 l-253 -230 -64 63 c-35 35 -64 60 -64 55 0 -10 121 -286
126 -286 4 0 495 598 507 617 4 7 7 13 5 12 -2 0 -117 -104 -257 -231z"/>
<path d="M140 1040 l0 -280 985 0 985 0 0 280 0 280 -667 -1 -668 0 -47 -59
-48 -59 0 -206 0 -205 -255 0 -255 0 0 255 0 255 234 0 c146 0 237 4 241 10 4
7 -82 10 -249 10 l-256 0 0 -280z m688 78 l-6 -93 33 90 c32 89 33 90 67 93
l36 3 -63 -168 -62 -168 -43 -3 -43 -3 6 122 c4 67 7 144 7 171 l0 48 36 0 37
0 -5 -92z m298 70 c-3 -13 -6 -26 -6 -30 0 -5 -20 -8 -45 -8 -42 0 -45 -2 -53
-32 -8 -32 -7 -33 25 -36 32 -3 34 -6 31 -35 -3 -29 -7 -32 -39 -35 -28 -2
-38 -8 -43 -25 -11 -42 -7 -47 34 -47 33 0 40 -3 40 -19 0 -46 -9 -51 -86 -51
-64 0 -74 2 -74 18 0 9 14 82 30 162 16 80 30 148 30 153 0 4 37 7 81 7 79 0
81 -1 75 -22z m164 2 c11 -11 20 -27 20 -36 0 -34 -23 -104 -40 -119 -14 -13
-16 -28 -12 -90 l5 -75 -37 0 -36 0 0 66 c0 72 -14 79 -25 11 -11 -74 -13 -77
-51 -77 -29 0 -34 3 -30 18 5 16 66 310 66 318 0 2 27 4 60 4 47 0 64 -4 80
-20z m115 -47 c-7 -38 -23 -113 -34 -167 -12 -55 -21 -101 -21 -103 0 -1 -16
-3 -35 -3 -32 0 -35 2 -30 23 8 36 65 310 65 314 0 1 15 3 34 3 l34 0 -13 -67z
m197 38 c-4 -28 -8 -30 -50 -33 -46 -3 -47 -4 -53 -40 -6 -38 -6 -38 29 -38
27 0 33 -3 28 -16 -3 -9 -6 -22 -6 -30 0 -9 -11 -14 -34 -14 -37 0 -39 -3 -51
-70 -12 -66 -15 -70 -46 -70 -37 0 -37 2 1 187 17 80 30 147 30 149 0 2 35 4
78 4 l79 0 -5 -29z m87 17 c0 -7 -15 -83 -32 -168 l-33 -155 -32 -3 c-21 -2
-32 1 -32 10 0 7 14 83 32 170 l32 158 33 0 c20 0 33 -5 32 -12z m189 -15 c-3
-26 -7 -28 -50 -31 -29 -2 -48 -8 -48 -15 0 -7 -3 -22 -6 -34 -6 -21 -3 -23
31 -23 30 0 36 -3 31 -16 -3 -9 -6 -24 -6 -35 0 -16 -7 -19 -40 -19 -33 0 -40
-3 -40 -19 0 -11 -3 -26 -6 -35 -5 -13 2 -16 40 -16 46 0 46 -1 40 -27 -10
-43 -10 -43 -90 -43 l-76 0 7 43 c4 23 18 91 31 151 13 60 24 117 24 128 0 16
9 18 81 18 l80 0 -3 -27z m164 10 c23 -20 22 -45 -2 -161 -23 -110 -31 -127
-70 -147 -36 -19 -130 -20 -130 -2 0 6 14 83 32 170 l32 157 59 0 c42 0 66 -5
79 -17z"/>
<path d="M1206 1138 c-16 -49 -16 -68 -1 -68 17 0 39 46 31 67 -7 17 -25 17
-30 1z"/>
<path d="M1947 1078 c-31 -146 -31 -140 -11 -136 14 2 22 23 36 93 10 49 16
96 13 102 -11 29 -24 9 -38 -59z"/>
</g>
</svg>
